<svg width="2100" height="2100" xmlns="http://www.w3.org/2000/svg" xmlns:xlink="http://www.w3.org/1999/xlink">
  <rect x="0" y="0" width="2100" height="2100" fill="white"/>
  <rect x="0" y="0" width="100" height="100" fill="black"/>
  <rect x="100" y="0" width="100" height="100" fill="black"/>
  <rect x="200" y="0" width="100" height="100" fill="black"/>
  <rect x="300" y="0" width="100" height="100" fill="black"/>
  <rect x="400" y="0" width="100" height="100" fill="black"/>
  <rect x="500" y="0" width="100" height="100" fill="black"/>
  <rect x="600" y="0" width="100" height="100" fill="black"/>
  <rect x="700" y="0" width="100" height="100" fill="black"/>
  <rect x="800" y="0" width="100" height="100" fill="black"/>
  <rect x="900" y="0" width="100" height="100" fill="black"/>
  <rect x="1000" y="0" width="100" height="100" fill="black"/>
  <rect x="1100" y="0" width="100" height="100" fill="black"/>
  <rect x="1200" y="0" width="100" height="100" fill="black"/>
  <rect x="1300" y="0" width="100" height="100" fill="black"/>
  <rect x="1400" y="0" width="100" height="100" fill="black"/>
  <rect x="1500" y="0" width="100" height="100" fill="black"/>
  <rect x="1600" y="0" width="100" height="100" fill="black"/>
  <rect x="1700" y="0" width="100" height="100" fill="black"/>
  <rect x="1800" y="0" width="100" height="100" fill="black"/>
  <rect x="1900" y="0" width="100" height="100" fill="black"/>
  <rect x="2000" y="0" width="100" height="100" fill="black"/>
  <rect x="0" y="100" width="100" height="100" fill="black"/>
  <rect x="100" y="100" width="100" height="100" fill="#d3d3d3"/>
  <rect x="300" y="100" width="100" height="100" fill="#d3d3d3"/>
  <rect x="400" y="100" width="100" height="100" fill="black"/>
  <rect x="500" y="100" width="100" height="100" fill="#d3d3d3"/>
  <rect x="700" y="100" width="100" height="100" fill="#d3d3d3"/>
  <rect x="900" y="100" width="100" height="100" fill="#d3d3d3"/>
  <rect x="1000" y="100" width="100" height="100" fill="black"/>
  <rect x="1100" y="100" width="100" height="100" fill="#d3d3d3"/>
  <rect x="1200" y="100" width="100" height="100" fill="black"/>
  <rect x="1300" y="100" width="100" height="100" fill="#d3d3d3"/>
  <rect x="1400" y="100" width="100" height="100" fill="black"/>
  <rect x="1500" y="100" width="100" height="100" fill="#d3d3d3"/>
  <rect x="1700" y="100" width="100" height="100" fill="#d3d3d3"/>
  <rect x="1800" y="100" width="100" height="100" fill="black"/>
  <rect x="1900" y="100" width="100" height="100" fill="#d3d3d3"/>
  <rect x="2000" y="100" width="100" height="100" fill="black"/>
  <rect x="0" y="200" width="100" height="100" fill="black"/>
  <rect x="200" y="200" width="100" height="100" fill="black"/>
  <rect x="400" y="200" width="100" height="100" fill="black"/>
  <rect x="500" y="200" width="100" height="100" fill="black"/>
  <rect x="600" y="200" width="100" height="100" fill="black"/>
  <rect x="700" y="200" width="100" height="100" fill="black"/>
  <rect x="800" y="200" width="100" height="100" fill="black"/>
  <rect x="1000" y="200" width="100" height="100" fill="black"/>
  <rect x="1200" y="200" width="100" height="100" fill="black"/>
  <rect x="1400" y="200" width="100" height="100" fill="black"/>
  <rect x="1600" y="200" width="100" height="100" fill="black"/>
  <rect x="1800" y="200" width="100" height="100" fill="black"/>
  <rect x="2000" y="200" width="100" height="100" fill="black"/>
  <rect x="0" y="300" width="100" height="100" fill="black"/>
  <rect x="100" y="300" width="100" height="100" fill="#d3d3d3"/>
  <rect x="200" y="300" width="100" height="100" fill="black"/>
  <rect x="300" y="300" width="100" height="100" fill="blue"/>
  <rect x="400" y="300" width="100" height="100" fill="black"/>
  <rect x="500" y="300" width="100" height="100" fill="#d3d3d3"/>
  <rect x="600" y="300" width="100" height="100" fill="black"/>
  <rect x="700" y="300" width="100" height="100" fill="#d3d3d3"/>
  <rect x="800" y="300" width="100" height="100" fill="black"/>
  <rect x="900" y="300" width="100" height="100" fill="#d3d3d3"/>
  <rect x="1100" y="300" width="100" height="100" fill="#d3d3d3"/>
  <rect x="1200" y="300" width="100" height="100" fill="black"/>
  <rect x="1300" y="300" width="100" height="100" fill="#d3d3d3"/>
  <rect x="1400" y="300" width="100" height="100" fill="black"/>
  <rect x="1500" y="300" width="100" height="100" fill="#d3d3d3"/>
  <rect x="1600" y="300" width="100" height="100" fill="black"/>
  <rect x="1700" y="300" width="100" height="100" fill="#d3d3d3"/>
  <rect x="1900" y="300" width="100" height="100" fill="#d3d3d3"/>
  <rect x="2000" y="300" width="100" height="100" fill="black"/>
  <rect x="0" y="400" width="100" height="100" fill="black"/>
  <rect x="200" y="400" width="100" height="100" fill="black"/>
  <rect x="300" y="400" width="100" height="100" fill="black"/>
  <rect x="400" y="400" width="100" height="100" fill="black"/>
  <rect x="600" y="400" width="100" height="100" fill="black"/>
  <rect x="800" y="400" width="100" height="100" fill="black"/>
  <rect x="900" y="400" width="100" height="100" fill="black"/>
  <rect x="1000" y="400" width="100" height="100" fill="black"/>
  <rect x="1200" y="400" width="100" height="100" fill="black"/>
  <rect x="1400" y="400" width="100" height="100" fill="black"/>
  <rect x="1500" y="400" width="100" height="100" fill="black"/>
  <rect x="1600" y="400" width="100" height="100" fill="black"/>
  <rect x="1800" y="400" width="100" height="100" fill="black"/>
  <rect x="1900" y="400" width="100" height="100" fill="black"/>
  <rect x="2000" y="400" width="100" height="100" fill="black"/>
  <rect x="0" y="500" width="100" height="100" fill="black"/>
  <rect x="100" y="500" width="100" height="100" fill="#d3d3d3"/>
  <rect x="300" y="500" width="100" height="100" fill="#d3d3d3"/>
  <rect x="500" y="500" width="100" height="100" fill="#d3d3d3"/>
  <rect x="700" y="500" width="100" height="100" fill="#d3d3d3"/>
  <rect x="900" y="500" width="100" height="100" fill="#d3d3d3"/>
  <rect x="1100" y="500" width="100" height="100" fill="#d3d3d3"/>
  <rect x="1300" y="500" width="100" height="100" fill="#d3d3d3"/>
  <rect x="1400" y="500" width="100" height="100" fill="black"/>
  <rect x="1500" y="500" width="100" height="100" fill="#d3d3d3"/>
  <rect x="1700" y="500" width="100" height="100" fill="#d3d3d3"/>
  <rect x="1900" y="500" width="100" height="100" fill="#d3d3d3"/>
  <rect x="2000" y="500" width="100" height="100" fill="black"/>
  <rect x="0" y="600" width="100" height="100" fill="black"/>
  <rect x="100" y="600" width="100" height="100" fill="black"/>
  <rect x="200" y="600" width="100" height="100" fill="black"/>
  <rect x="300" y="600" width="100" height="100" fill="black"/>
  <rect x="400" y="600" width="100" height="100" fill="black"/>
  <rect x="600" y="600" width="100" height="100" fill="black"/>
  <rect x="800" y="600" width="100" height="100" fill="black"/>
  <rect x="1000" y="600" width="100" height="100" fill="black"/>
  <rect x="1100" y="600" width="100" height="100" fill="black"/>
  <rect x="1200" y="600" width="100" height="100" fill="black"/>
  <rect x="1300" y="600" width="100" height="100" fill="black"/>
  <rect x="1400" y="600" width="100" height="100" fill="black"/>
  <rect x="1500" y="600" width="100" height="100" fill="black"/>
  <rect x="1600" y="600" width="100" height="100" fill="black"/>
  <rect x="1800" y="600" width="100" height="100" fill="black"/>
  <rect x="2000" y="600" width="100" height="100" fill="black"/>
  <rect x="0" y="700" width="100" height="100" fill="black"/>
  <rect x="100" y="700" width="100" height="100" fill="#d3d3d3"/>
  <rect x="200" y="700" width="100" height="100" fill="black"/>
  <rect x="300" y="700" width="100" height="100" fill="#d3d3d3"/>
  <rect x="400" y="700" width="100" height="100" fill="black"/>
  <rect x="500" y="700" width="100" height="100" fill="#d3d3d3"/>
  <rect x="600" y="700" width="100" height="100" fill="black"/>
  <rect x="700" y="700" width="100" height="100" fill="#d3d3d3"/>
  <rect x="800" y="700" width="100" height="100" fill="black"/>
  <rect x="900" y="700" width="100" height="100" fill="#d3d3d3"/>
  <rect x="1000" y="700" width="100" height="100" fill="black"/>
  <rect x="1100" y="700" width="100" height="100" fill="#d3d3d3"/>
  <rect x="1300" y="700" width="100" height="100" fill="#d3d3d3"/>
  <rect x="1500" y="700" width="100" height="100" fill="#d3d3d3"/>
  <rect x="1700" y="700" width="100" height="100" fill="#d3d3d3"/>
  <rect x="1800" y="700" width="100" height="100" fill="black"/>
  <rect x="1900" y="700" width="100" height="100" fill="#d3d3d3"/>
  <rect x="2000" y="700" width="100" height="100" fill="black"/>
  <rect x="0" y="800" width="100" height="100" fill="black"/>
  <rect x="200" y="800" width="100" height="100" fill="black"/>
  <rect x="400" y="800" width="100" height="100" fill="black"/>
  <rect x="600" y="800" width="100" height="100" fill="black"/>
  <rect x="700" y="800" width="100" height="100" fill="black"/>
  <rect x="800" y="800" width="100" height="100" fill="black"/>
  <rect x="900" y="800" width="100" height="100" fill="black"/>
  <rect x="1000" y="800" width="100" height="100" fill="black"/>
  <rect x="1100" y="800" width="100" height="100" fill="black"/>
  <rect x="1200" y="800" width="100" height="100" fill="black"/>
  <rect x="1300" y="800" width="100" height="100" fill="black"/>
  <rect x="1400" y="800" width="100" height="100" fill="black"/>
  <rect x="1600" y="800" width="100" height="100" fill="black"/>
  <rect x="1700" y="800" width="100" height="100" fill="black"/>
  <rect x="1800" y="800" width="100" height="100" fill="black"/>
  <rect x="1900" y="800" width="100" height="100" fill="black"/>
  <rect x="2000" y="800" width="100" height="100" fill="black"/>
  <rect x="0" y="900" width="100" height="100" fill="black"/>
  <rect x="100" y="900" width="100" height="100" fill="#d3d3d3"/>
  <rect x="300" y="900" width="100" height="100" fill="#d3d3d3"/>
  <rect x="500" y="900" width="100" height="100" fill="#d3d3d3"/>
  <rect x="700" y="900" width="100" height="100" fill="#d3d3d3"/>
  <rect x="800" y="900" width="100" height="100" fill="black"/>
  <rect x="900" y="900" width="100" height="100" fill="#d3d3d3"/>
  <rect x="1100" y="900" width="100" height="100" fill="#d3d3d3"/>
  <rect x="1300" y="900" width="100" height="100" fill="#d3d3d3"/>
  <rect x="1500" y="900" width="100" height="100" fill="#d3d3d3"/>
  <rect x="1700" y="900" width="100" height="100" fill="#d3d3d3"/>
  <rect x="1900" y="900" width="100" height="100" fill="#d3d3d3"/>
  <rect x="2000" y="900" width="100" height="100" fill="black"/>
  <rect x="0" y="1000" width="100" height="100" fill="black"/>
  <rect x="100" y="1000" width="100" height="100" fill="black"/>
  <rect x="200" y="1000" width="100" height="100" fill="black"/>
  <rect x="300" y="1000" width="100" height="100" fill="black"/>
  <rect x="400" y="1000" width="100" height="100" fill="black"/>
  <rect x="500" y="1000" width="100" height="100" fill="black"/>
  <rect x="600" y="1000" width="100" height="100" fill="black"/>
  <rect x="800" y="1000" width="100" height="100" fill="black"/>
  <rect x="1000" y="1000" width="100" height="100" fill="black"/>
  <rect x="1100" y="1000" width="100" height="100" fill="black"/>
  <rect x="1200" y="1000" width="100" height="100" fill="black"/>
  <rect x="1300" y="1000" width="100" height="100" fill="black"/>
  <rect x="1400" y="1000" width="100" height="100" fill="black"/>
  <rect x="1500" y="1000" width="100" height="100" fill="black"/>
  <rect x="1600" y="1000" width="100" height="100" fill="black"/>
  <rect x="1700" y="1000" width="100" height="100" fill="black"/>
  <rect x="1800" y="1000" width="100" height="100" fill="black"/>
  <rect x="2000" y="1000" width="100" height="100" fill="black"/>
  <rect x="0" y="1100" width="100" height="100" fill="black"/>
  <rect x="100" y="1100" width="100" height="100" fill="#d3d3d3"/>
  <rect x="200" y="1100" width="100" height="100" fill="black"/>
  <rect x="300" y="1100" width="100" height="100" fill="#d3d3d3"/>
  <rect x="500" y="1100" width="100" height="100" fill="#d3d3d3"/>
  <rect x="700" y="1100" width="100" height="100" fill="#d3d3d3"/>
  <rect x="800" y="1100" width="100" height="100" fill="black"/>
  <rect x="900" y="1100" width="100" height="100" fill="#d3d3d3"/>
  <rect x="1000" y="1100" width="100" height="100" fill="black"/>
  <rect x="1100" y="1100" width="100" height="100" fill="#d3d3d3"/>
  <rect x="1200" y="1100" width="100" height="100" fill="black"/>
  <rect x="1300" y="1100" width="100" height="100" fill="#d3d3d3"/>
  <rect x="1400" y="1100" width="100" height="100" fill="black"/>
  <rect x="1500" y="1100" width="100" height="100" fill="#d3d3d3"/>
  <rect x="1700" y="1100" width="100" height="100" fill="#d3d3d3"/>
  <rect x="1900" y="1100" width="100" height="100" fill="#d3d3d3"/>
  <rect x="2000" y="1100" width="100" height="100" fill="black"/>
  <rect x="0" y="1200" width="100" height="100" fill="black"/>
  <rect x="200" y="1200" width="100" height="100" fill="black"/>
  <rect x="400" y="1200" width="100" height="100" fill="black"/>
  <rect x="500" y="1200" width="100" height="100" fill="black"/>
  <rect x="600" y="1200" width="100" height="100" fill="black"/>
  <rect x="700" y="1200" width="100" height="100" fill="black"/>
  <rect x="800" y="1200" width="100" height="100" fill="black"/>
  <rect x="1000" y="1200" width="100" height="100" fill="black"/>
  <rect x="1200" y="1200" width="100" height="100" fill="black"/>
  <rect x="1400" y="1200" width="100" height="100" fill="black"/>
  <rect x="1500" y="1200" width="100" height="100" fill="black"/>
  <rect x="1600" y="1200" width="100" height="100" fill="black"/>
  <rect x="1800" y="1200" width="100" height="100" fill="black"/>
  <rect x="1900" y="1200" width="100" height="100" fill="black"/>
  <rect x="2000" y="1200" width="100" height="100" fill="black"/>
  <rect x="0" y="1300" width="100" height="100" fill="black"/>
  <rect x="100" y="1300" width="100" height="100" fill="#d3d3d3"/>
  <rect x="300" y="1300" width="100" height="100" fill="#d3d3d3"/>
  <rect x="500" y="1300" width="100" height="100" fill="#d3d3d3"/>
  <rect x="600" y="1300" width="100" height="100" fill="black"/>
  <rect x="700" y="1300" width="100" height="100" fill="#d3d3d3"/>
  <rect x="900" y="1300" width="100" height="100" fill="#d3d3d3"/>
  <rect x="1000" y="1300" width="100" height="100" fill="black"/>
  <rect x="1100" y="1300" width="100" height="100" fill="#d3d3d3"/>
  <rect x="1300" y="1300" width="100" height="100" fill="#d3d3d3"/>
  <rect x="1400" y="1300" width="100" height="100" fill="black"/>
  <rect x="1500" y="1300" width="100" height="100" fill="#d3d3d3"/>
  <rect x="1700" y="1300" width="100" height="100" fill="#d3d3d3"/>
  <rect x="1800" y="1300" width="100" height="100" fill="black"/>
  <rect x="1900" y="1300" width="100" height="100" fill="#d3d3d3"/>
  <rect x="2000" y="1300" width="100" height="100" fill="black"/>
  <rect x="0" y="1400" width="100" height="100" fill="black"/>
  <rect x="200" y="1400" width="100" height="100" fill="black"/>
  <rect x="300" y="1400" width="100" height="100" fill="black"/>
  <rect x="400" y="1400" width="100" height="100" fill="black"/>
  <rect x="500" y="1400" width="100" height="100" fill="black"/>
  <rect x="600" y="1400" width="100" height="100" fill="black"/>
  <rect x="800" y="1400" width="100" height="100" fill="black"/>
  <rect x="900" y="1400" width="100" height="100" fill="black"/>
  <rect x="1000" y="1400" width="100" height="100" fill="black"/>
  <rect x="1100" y="1400" width="100" height="100" fill="black"/>
  <rect x="1200" y="1400" width="100" height="100" fill="black"/>
  <rect x="1400" y="1400" width="100" height="100" fill="black"/>
  <rect x="1600" y="1400" width="100" height="100" fill="black"/>
  <rect x="1700" y="1400" width="100" height="100" fill="black"/>
  <rect x="1800" y="1400" width="100" height="100" fill="black"/>
  <rect x="2000" y="1400" width="100" height="100" fill="black"/>
  <rect x="0" y="1500" width="100" height="100" fill="black"/>
  <rect x="100" y="1500" width="100" height="100" fill="#d3d3d3"/>
  <rect x="300" y="1500" width="100" height="100" fill="#d3d3d3"/>
  <rect x="500" y="1500" width="100" height="100" fill="#d3d3d3"/>
  <rect x="600" y="1500" width="100" height="100" fill="black"/>
  <rect x="700" y="1500" width="100" height="100" fill="#d3d3d3"/>
  <rect x="900" y="1500" width="100" height="100" fill="#d3d3d3"/>
  <rect x="1100" y="1500" width="100" height="100" fill="#d3d3d3"/>
  <rect x="1200" y="1500" width="100" height="100" fill="black"/>
  <rect x="1300" y="1500" width="100" height="100" fill="#d3d3d3"/>
  <rect x="1500" y="1500" width="100" height="100" fill="#d3d3d3"/>
  <rect x="1600" y="1500" width="100" height="100" fill="black"/>
  <rect x="1700" y="1500" width="100" height="100" fill="#d3d3d3"/>
  <rect x="1900" y="1500" width="100" height="100" fill="#d3d3d3"/>
  <rect x="2000" y="1500" width="100" height="100" fill="black"/>
  <rect x="0" y="1600" width="100" height="100" fill="black"/>
  <rect x="200" y="1600" width="100" height="100" fill="black"/>
  <rect x="400" y="1600" width="100" height="100" fill="black"/>
  <rect x="500" y="1600" width="100" height="100" fill="black"/>
  <rect x="600" y="1600" width="100" height="100" fill="black"/>
  <rect x="800" y="1600" width="100" height="100" fill="black"/>
  <rect x="900" y="1600" width="100" height="100" fill="black"/>
  <rect x="1000" y="1600" width="100" height="100" fill="black"/>
  <rect x="1100" y="1600" width="100" height="100" fill="black"/>
  <rect x="1200" y="1600" width="100" height="100" fill="black"/>
  <rect x="1300" y="1600" width="100" height="100" fill="black"/>
  <rect x="1400" y="1600" width="100" height="100" fill="black"/>
  <rect x="1600" y="1600" width="100" height="100" fill="black"/>
  <rect x="1800" y="1600" width="100" height="100" fill="black"/>
  <rect x="1900" y="1600" width="100" height="100" fill="black"/>
  <rect x="2000" y="1600" width="100" height="100" fill="black"/>
  <rect x="0" y="1700" width="100" height="100" fill="black"/>
  <rect x="100" y="1700" width="100" height="100" fill="#d3d3d3"/>
  <rect x="200" y="1700" width="100" height="100" fill="black"/>
  <rect x="300" y="1700" width="100" height="100" fill="#d3d3d3"/>
  <rect x="500" y="1700" width="100" height="100" fill="#d3d3d3"/>
  <rect x="600" y="1700" width="100" height="100" fill="black"/>
  <rect x="700" y="1700" width="100" height="100" fill="#d3d3d3"/>
  <rect x="900" y="1700" width="100" height="100" fill="#d3d3d3"/>
  <rect x="1100" y="1700" width="100" height="100" fill="#d3d3d3"/>
  <rect x="1300" y="1700" width="100" height="100" fill="#d3d3d3"/>
  <rect x="1400" y="1700" width="100" height="100" fill="black"/>
  <rect x="1500" y="1700" width="100" height="100" fill="#d3d3d3"/>
  <rect x="1700" y="1700" width="100" height="100" fill="#d3d3d3"/>
  <rect x="1900" y="1700" width="100" height="100" fill="#d3d3d3"/>
  <rect x="2000" y="1700" width="100" height="100" fill="black"/>
  <rect x="0" y="1800" width="100" height="100" fill="black"/>
  <rect x="100" y="1800" width="100" height="100" fill="black"/>
  <rect x="200" y="1800" width="100" height="100" fill="black"/>
  <rect x="400" y="1800" width="100" height="100" fill="black"/>
  <rect x="600" y="1800" width="100" height="100" fill="black"/>
  <rect x="800" y="1800" width="100" height="100" fill="black"/>
  <rect x="1000" y="1800" width="100" height="100" fill="black"/>
  <rect x="1200" y="1800" width="100" height="100" fill="black"/>
  <rect x="1300" y="1800" width="100" height="100" fill="black"/>
  <rect x="1400" y="1800" width="100" height="100" fill="black"/>
  <rect x="1500" y="1800" width="100" height="100" fill="black"/>
  <rect x="1600" y="1800" width="100" height="100" fill="black"/>
  <rect x="1800" y="1800" width="100" height="100" fill="black"/>
  <rect x="2000" y="1800" width="100" height="100" fill="black"/>
  <rect x="0" y="1900" width="100" height="100" fill="black"/>
  <rect x="100" y="1900" width="100" height="100" fill="#d3d3d3"/>
  <rect x="300" y="1900" width="100" height="100" fill="#d3d3d3"/>
  <rect x="400" y="1900" width="100" height="100" fill="black"/>
  <rect x="500" y="1900" width="100" height="100" fill="#d3d3d3"/>
  <rect x="700" y="1900" width="100" height="100" fill="#d3d3d3"/>
  <rect x="800" y="1900" width="100" height="100" fill="black"/>
  <rect x="900" y="1900" width="100" height="100" fill="#d3d3d3"/>
  <rect x="1000" y="1900" width="100" height="100" fill="black"/>
  <rect x="1100" y="1900" width="100" height="100" fill="#d3d3d3"/>
  <rect x="1300" y="1900" width="100" height="100" fill="#d3d3d3"/>
  <rect x="1500" y="1900" width="100" height="100" fill="#d3d3d3"/>
  <rect x="1600" y="1900" width="100" height="100" fill="black"/>
  <rect x="1700" y="1900" width="100" height="100" fill="#d3d3d3"/>
  <rect x="1800" y="1900" width="100" height="100" fill="black"/>
  <rect x="1900" y="1900" width="100" height="100" fill="lime"/>
  <rect x="2000" y="1900" width="100" height="100" fill="black"/>
  <rect x="0" y="2000" width="100" height="100" fill="black"/>
  <rect x="100" y="2000" width="100" height="100" fill="black"/>
  <rect x="200" y="2000" width="100" height="100" fill="black"/>
  <rect x="300" y="2000" width="100" height="100" fill="black"/>
  <rect x="400" y="2000" width="100" height="100" fill="black"/>
  <rect x="500" y="2000" width="100" height="100" fill="black"/>
  <rect x="600" y="2000" width="100" height="100" fill="black"/>
  <rect x="700" y="2000" width="100" height="100" fill="black"/>
  <rect x="800" y="2000" width="100" height="100" fill="black"/>
  <rect x="900" y="2000" width="100" height="100" fill="black"/>
  <rect x="1000" y="2000" width="100" height="100" fill="black"/>
  <rect x="1100" y="2000" width="100" height="100" fill="black"/>
  <rect x="1200" y="2000" width="100" height="100" fill="black"/>
  <rect x="1300" y="2000" width="100" height="100" fill="black"/>
  <rect x="1400" y="2000" width="100" height="100" fill="black"/>
  <rect x="1500" y="2000" width="100" height="100" fill="black"/>
  <rect x="1600" y="2000" width="100" height="100" fill="black"/>
  <rect x="1700" y="2000" width="100" height="100" fill="black"/>
  <rect x="1800" y="2000" width="100" height="100" fill="black"/>
  <rect x="1900" y="2000" width="100" height="100" fill="black"/>
  <rect x="2000" y="2000" width="100" height="100" fill="black"/>
  <circle cx="150.0" cy="150.0" r="40.0" fill="red" stroke="black" stroke-width="1"/>
  <rect x="1925.0" y="1925.0" width="50.0" height="50.0" fill="darkgreen"/>
  <g id="path-player2" stroke="cyan" stroke-width="20.0" stroke-opacity="0.75" stroke-linecap="round" fill="none">
    <line x1="150.0" y1="150.0" x2="350.0" y2="150.0"/>
    <line x1="350.0" y1="150.0" x2="150.0" y2="150.0"/>
    <line x1="150.0" y1="150.0" x2="150.0" y2="350.0"/>
    <line x1="150.0" y1="350.0" x2="150.0" y2="550.0"/>
    <line x1="150.0" y1="550.0" x2="350.0" y2="550.0"/>
    <line x1="350.0" y1="550.0" x2="550.0" y2="550.0"/>
    <line x1="550.0" y1="550.0" x2="750.0" y2="550.0"/>
    <line x1="750.0" y1="550.0" x2="750.0" y2="350.0"/>
    <line x1="750.0" y1="350.0" x2="750.0" y2="550.0"/>
    <line x1="750.0" y1="550.0" x2="550.0" y2="550.0"/>
    <line x1="550.0" y1="550.0" x2="550.0" y2="750.0"/>
    <line x1="550.0" y1="750.0" x2="550.0" y2="950.0"/>
    <line x1="550.0" y1="950.0" x2="750.0" y2="950.0"/>
    <line x1="750.0" y1="950.0" x2="750.0" y2="1150.0"/>
    <line x1="750.0" y1="1150.0" x2="550.0" y2="1150.0"/>
    <line x1="550.0" y1="1150.0" x2="350.0" y2="1150.0"/>
    <line x1="350.0" y1="1150.0" x2="350.0" y2="1350.0"/>
    <line x1="350.0" y1="1350.0" x2="150.0" y2="1350.0"/>
    <line x1="150.0" y1="1350.0" x2="150.0" y2="1550.0"/>
    <line x1="150.0" y1="1550.0" x2="350.0" y2="1550.0"/>
    <line x1="350.0" y1="1550.0" x2="350.0" y2="1750.0"/>
    <line x1="350.0" y1="1750.0" x2="550.0" y2="1750.0"/>
    <line x1="550.0" y1="1750.0" x2="550.0" y2="1950.0"/>
    <line x1="550.0" y1="1950.0" x2="750.0" y2="1950.0"/>
    <line x1="750.0" y1="1950.0" x2="750.0" y2="1750.0"/>
    <line x1="750.0" y1="1750.0" x2="750.0" y2="1550.0"/>
    <line x1="750.0" y1="1550.0" x2="750.0" y2="1350.0"/>
    <line x1="750.0" y1="1350.0" x2="950.0" y2="1350.0"/>
    <line x1="950.0" y1="1350.0" x2="950.0" y2="1150.0"/>
    <line x1="950.0" y1="1150.0" x2="950.0" y2="950.0"/>
    <line x1="950.0" y1="950.0" x2="1150.0" y2="950.0"/>
    <line x1="1150.0" y1="950.0" x2="1350.0" y2="950.0"/>
    <line x1="1350.0" y1="950.0" x2="1550.0" y2="950.0"/>
    <line x1="1550.0" y1="950.0" x2="1750.0" y2="950.0"/>
    <line x1="1750.0" y1="950.0" x2="1950.0" y2="950.0"/>
    <line x1="1950.0" y1="950.0" x2="1950.0" y2="1150.0"/>
    <line x1="1950.0" y1="1150.0" x2="1750.0" y2="1150.0"/>
    <line x1="1750.0" y1="1150.0" x2="1750.0" y2="1350.0"/>
    <line x1="1750.0" y1="1350.0" x2="1550.0" y2="1350.0"/>
    <line x1="1550.0" y1="1350.0" x2="1550.0" y2="1550.0"/>
    <line x1="1550.0" y1="1550.0" x2="1550.0" y2="1750.0"/>
    <line x1="1550.0" y1="1750.0" x2="1750.0" y2="1750.0"/>
    <line x1="1750.0" y1="1750.0" x2="1950.0" y2="1750.0"/>
    <line x1="1950.0" y1="1750.0" x2="1950.0" y2="1950.0"/>
  </g>
</svg>
