<svg width="700" height="700" xmlns="http://www.w3.org/2000/svg" xmlns:xlink="http://www.w3.org/1999/xlink">
  <rect x="0" y="0" width="700" height="700" fill="white"/>
  <rect x="0" y="0" width="100" height="100" fill="black"/>
  <rect x="100" y="0" width="100" height="100" fill="black"/>
  <rect x="200" y="0" width="100" height="100" fill="black"/>
  <rect x="300" y="0" width="100" height="100" fill="black"/>
  <rect x="400" y="0" width="100" height="100" fill="black"/>
  <rect x="500" y="0" width="100" height="100" fill="black"/>
  <rect x="600" y="0" width="100" height="100" fill="black"/>
  <rect x="0" y="100" width="100" height="100" fill="black"/>
  <rect x="100" y="100" width="100" height="100" fill="#d3d3d3"/>
  <rect x="200" y="100" width="100" height="100" fill="black"/>
  <rect x="300" y="100" width="100" height="100" fill="#d3d3d3"/>
  <rect x="500" y="100" width="100" height="100" fill="#d3d3d3"/>
  <rect x="600" y="100" width="100" height="100" fill="black"/>
  <rect x="0" y="200" width="100" height="100" fill="black"/>
  <rect x="200" y="200" width="100" height="100" fill="black"/>
  <rect x="400" y="200" width="100" height="100" fill="black"/>
  <rect x="600" y="200" width="100" height="100" fill="black"/>
  <rect x="0" y="300" width="100" height="100" fill="black"/>
  <rect x="100" y="300" width="100" height="100" fill="#d3d3d3"/>
  <rect x="300" y="300" width="100" height="100" fill="#d3d3d3"/>
  <rect x="400" y="300" width="100" height="100" fill="black"/>
  <rect x="500" y="300" width="100" height="100" fill="#d3d3d3"/>
  <rect x="600" y="300" width="100" height="100" fill="black"/>
  <rect x="0" y="400" width="100" height="100" fill="black"/>
  <rect x="100" y="400" width="100" height="100" fill="black"/>
  <rect x="200" y="400" width="100" height="100" fill="black"/>
  <rect x="300" y="400" width="100" height="100" fill="black"/>
  <rect x="400" y="400" width="100" height="100" fill="black"/>
  <rect x="600" y="400" width="100" height="100" fill="black"/>
  <rect x="0" y="500" width="100" height="100" fill="black"/>
  <rect x="100" y="500" width="100" height="100" fill="blue"/>
  <rect x="300" y="500" width="100" height="100" fill="#d3d3d3"/>
  <rect x="500" y="500" width="100" height="100" fill="lime"/>
  <rect x="600" y="500" width="100" height="100" fill="black"/>
  <rect x="0" y="600" width="100" height="100" fill="black"/>
  <rect x="100" y="600" width="100" height="100" fill="black"/>
  <rect x="200" y="600" width="100" height="100" fill="black"/>
  <rect x="300" y="600" width="100" height="100" fill="black"/>
  <rect x="400" y="600" width="100" height="100" fill="black"/>
  <rect x="500" y="600" width="100" height="100" fill="black"/>
  <rect x="600" y="600" width="100" height="100" fill="black"/>
  <circle cx="150.0" cy="150.0" r="40.0" fill="red" stroke="black" stroke-width="1"/>
  <rect x="525.0" y="525.0" width="50.0" height="50.0" fill="darkgreen"/>
  <g id="path-player2" stroke="cyan" stroke-width="20.0" stroke-opacity="0.75" stroke-linecap="round" fill="none">
    <line x1="150.0" y1="150.0" x2="150.0" y2="350.0"/>
    <line x1="150.0" y1="350.0" x2="350.0" y2="350.0"/>
    <line x1="350.0" y1="350.0" x2="350.0" y2="150.0"/>
    <line x1="350.0" y1="150.0" x2="550.0" y2="150.0"/>
    <line x1="550.0" y1="150.0" x2="550.0" y2="350.0"/>
    <line x1="550.0" y1="350.0" x2="550.0" y2="550.0"/>
  </g>
</svg>
